<svg width="40" height="40" viewBox="0 0 40 40" fill="none" xmlns="http://www.w3.org/2000/svg">
<g clip-path="url(#clip0_415_704)">
<path d="M39.2456 18.2178L21.7812 0.754397C20.7761 -0.251384 19.1448 -0.251384 18.1384 0.754397L14.5119 4.38096L19.1123 8.98143C20.1814 8.62018 21.4073 8.86252 22.2595 9.71471C23.1158 10.5724 23.3564 11.8088 22.9864 12.8813L27.42 17.315C28.4927 16.9455 29.7303 17.1846 30.587 18.0427C31.7844 19.2396 31.7844 21.1794 30.587 22.3771C29.3894 23.5749 27.4495 23.5749 26.2512 22.3771C25.3506 21.4755 25.1281 20.1528 25.5841 19.0433L21.4494 14.9086L21.4489 25.7894C21.7486 25.9376 22.0224 26.1334 22.2595 26.3691C23.4569 27.566 23.4569 29.506 22.2595 30.7046C21.0619 31.9017 19.1211 31.9017 17.9252 30.7046C16.7278 29.506 16.7278 27.5661 17.9252 26.3692C18.2121 26.0822 18.5531 25.8548 18.9284 25.7003V14.7181C18.5525 14.5647 18.2114 14.3372 17.9252 14.0492C17.018 13.1433 16.7998 11.8122 17.2647 10.6983L12.7297 6.16283L0.754687 18.1371C-0.251563 19.1438 -0.251563 20.7752 0.754687 21.7811L18.2194 39.2449C19.2248 40.2508 20.8558 40.2508 21.8625 39.2449L39.2455 21.8622C40.2514 20.856 40.2514 19.2236 39.2455 18.2178" fill="#DE4C36"/>
</g>
<defs>
<clipPath id="clip0_415_704">
<rect width="40" height="40" fill="white"/>
</clipPath>
</defs>
</svg>
