<svg width="25" height="26" viewBox="0 0 25 26" fill="none" xmlns="http://www.w3.org/2000/svg">
<path d="M15.2219 6.3313V10.6102L16.7187 11.5516C16.7728 11.5635 16.8288 11.5635 16.8828 11.5516L23.3187 7.21255C23.314 7.00196 23.237 6.79941 23.1006 6.63893C22.9641 6.47845 22.7766 6.36982 22.5695 6.3313H15.2219Z" fill="white"/>
<path d="M15.2219 12.2063L16.5867 13.1438C16.6506 13.1827 16.724 13.2033 16.7988 13.2033C16.8737 13.2033 16.947 13.1827 17.0109 13.1438C16.7766 13.2852 23.318 8.9422 23.318 8.9422V16.8063C23.335 16.9656 23.3171 17.1268 23.2653 17.2785C23.2136 17.4301 23.1293 17.5687 23.0185 17.6844C22.9076 17.8001 22.7728 17.8902 22.6234 17.9484C22.4741 18.0065 22.3138 18.0313 22.1539 18.0211H15.2211V12.2063H15.2219ZM8.15625 10.2336C7.92948 10.2325 7.70663 10.2928 7.51133 10.408C7.31603 10.5233 7.15554 10.6892 7.04688 10.8883C6.75009 11.4159 6.60769 12.0164 6.63594 12.6211C6.6051 13.2246 6.74769 13.8242 7.04688 14.3492C7.15509 14.5401 7.31162 14.6991 7.50075 14.8103C7.68988 14.9215 7.90495 14.9809 8.12434 14.9827C8.34372 14.9844 8.55971 14.9284 8.75058 14.8202C8.94145 14.712 9.10049 14.5555 9.21172 14.3664C9.50764 13.8438 9.64729 13.2473 9.61406 12.6477C9.64795 12.0292 9.51292 11.4132 9.22344 10.8656C9.11999 10.6731 8.96591 10.5124 8.77783 10.4011C8.58976 10.2897 8.37483 10.2318 8.15625 10.2336Z" fill="white"/>
<path d="M1.68203 4.15784V20.8977L14.4164 23.568V1.69299L1.68203 4.15784ZM10.2039 15.3578C9.96569 15.6937 9.64894 15.9661 9.28127 16.1515C8.9136 16.3368 8.50618 16.4294 8.09453 16.4211C7.69324 16.4282 7.29616 16.3384 6.93707 16.1591C6.57798 15.9798 6.2675 15.7165 6.03203 15.3914C5.47358 14.6118 5.19422 13.6666 5.23906 12.7086C5.19155 11.7037 5.47596 10.711 6.04844 9.88362C6.28966 9.54138 6.61138 9.26374 6.98523 9.07518C7.35908 8.88662 7.77358 8.79293 8.19219 8.80237C8.59057 8.79437 8.98483 8.88429 9.34035 9.06423C9.69587 9.24417 10.0018 9.50863 10.2312 9.8344C10.7841 10.631 11.0587 11.5877 11.0125 12.5563C11.0612 13.554 10.7767 14.5395 10.2039 15.3578Z" fill="white"/>
</svg>
