<svg width="55" height="55" viewBox="0 0 55 55" fill="none" xmlns="http://www.w3.org/2000/svg">
<g clip-path="url(#clip0_150_2985)">
<path d="M19.5959 11.5023C20.8654 11.3923 22.1589 12.3007 22.5838 13.4403L22.434 11.5487C22.3016 10.0468 23.2379 9.0452 24.7412 8.91242C26.2429 8.78253 28.1144 12.5432 28.1144 12.5432C27.9814 11.0269 28.9129 9.74026 30.4297 9.60631C31.1582 9.5433 31.8819 9.77205 32.4418 10.2423C33.0017 10.7126 33.3521 11.3858 33.4158 12.1142L35.2647 32.0675L26.8341 43.7187L18.415 33.672L17.0757 14.5095C17.0434 14.1465 17.083 13.7807 17.1923 13.4331C17.3015 13.0854 17.4782 12.7627 17.7123 12.4834C17.9463 12.2041 18.2332 11.9736 18.5564 11.8053C18.8796 11.6369 19.2328 11.534 19.5959 11.5023Z" fill="#EF9645"/>
<path d="M12.9621 18.1788C12.9621 18.1788 12.7895 15.9622 15.0065 15.7911C17.2216 15.6189 17.3938 17.834 17.3938 17.834L18.1922 28.1201C18.5341 27.9301 18.8902 27.7533 19.2662 27.5932L18.1572 13.3185C18.1572 13.3185 17.985 11.1034 20.201 10.9318C22.4161 10.7596 22.5883 12.9747 22.5883 12.9747L23.6307 26.4026C23.9916 26.3441 24.3588 26.288 24.7316 26.2402L23.524 10.6718C23.524 10.6718 23.3518 8.45667 25.5679 8.28504C27.783 8.11284 27.9551 10.3279 27.9551 10.3279L29.1638 25.8944C29.5442 25.8844 29.9084 25.8958 30.2786 25.8991L29.1488 11.3494C29.1488 11.3494 28.9766 9.13429 31.1917 8.96209C33.4068 8.7899 33.579 11.005 33.579 11.005L34.7731 26.3899L34.9543 28.7295C28.3075 29.2465 24.3071 35.1288 24.7368 40.6667C24.8221 41.7745 25.9299 41.6891 25.9299 41.6891C25.4144 35.0419 29.5007 30.2664 36.1479 29.751L38.8007 21.914C38.8007 21.914 39.3451 19.7599 41.4989 20.3028C43.653 20.8473 43.1095 23.002 43.1095 23.002L41.9509 28.7532C41.4915 31.0334 41.0773 33.3308 40.9439 35.653C40.5673 42.2098 35.3946 47.6424 28.6643 48.1663C21.3239 48.7358 14.9088 43.2448 14.3379 35.9048L12.9621 18.1788Z" fill="#FFDC5D"/>
<path d="M13.7459 37.4991C9.89691 35.2769 8.25305 29.1419 10.4753 25.2929C10.7825 24.7608 10.6411 24.1056 10.109 23.7984C9.57686 23.4912 8.85799 23.6497 8.55077 24.1818C5.21743 29.9553 6.8613 36.0903 12.6348 39.4236C13.1669 39.7308 13.8687 39.5086 14.1759 38.9765C14.4832 38.4444 14.278 37.8063 13.7459 37.4991Z" fill="#5DADEC"/>
<path d="M7.84689 36.6054C4.96014 34.9387 4.14675 31.9031 5.81342 29.0164C5.96076 28.7612 6.00069 28.4579 5.92442 28.1732C5.84815 27.8886 5.66193 27.6459 5.40672 27.4986C5.15152 27.3512 4.84823 27.3113 4.56359 27.3876C4.27895 27.4638 4.03626 27.6501 3.88892 27.9053C1.66669 31.7543 2.88678 36.3077 6.73578 38.5299C6.99098 38.6772 7.29427 38.7172 7.57891 38.6409C7.86356 38.5646 8.10624 38.3784 8.25359 38.1232C8.40093 37.868 8.44086 37.5647 8.36459 37.2801C8.28832 36.9954 8.1021 36.7527 7.84689 36.6054ZM41.9829 15.2578C41.7277 15.1105 41.4244 15.0706 41.1398 15.1468C40.8552 15.2231 40.6125 15.4093 40.4651 15.6645C40.3178 15.9197 40.2778 16.223 40.3541 16.5077C40.4304 16.7923 40.6166 17.035 40.8718 17.1823C44.7208 19.4046 46.5759 25.0803 44.1254 29.3248C43.978 29.58 43.9381 29.8833 44.0144 30.1679C44.0906 30.4526 44.2769 30.6952 44.5321 30.8426C44.7873 30.9899 45.0906 31.0299 45.3752 30.9536C45.6598 30.8773 45.9025 30.6911 46.0499 30.4359C49.1132 25.13 47.7564 18.5912 41.9829 15.2578Z" fill="#5DADEC"/>
<path d="M47.8819 16.1515C47.3508 15.8449 46.6941 15.9866 46.3875 16.5178C46.0808 17.049 46.2397 17.7694 46.7708 18.076C49.6576 19.7427 50.3055 22.9715 48.7872 25.6013C48.4805 26.1325 48.7022 26.8352 49.2343 27.1424C49.7664 27.4497 50.405 27.2436 50.7117 26.7124C52.8434 23.0203 51.7309 18.3737 47.8819 16.1515Z" fill="#5DADEC"/>
</g>
<defs>
<clipPath id="clip0_150_2985">
<rect width="40" height="40" fill="white" transform="translate(20) rotate(30)"/>
</clipPath>
</defs>
</svg>
