<svg width="40" height="40" viewBox="0 0 40 40" fill="none" xmlns="http://www.w3.org/2000/svg">
<g clip-path="url(#clip0_150_2987)">
<path d="M5.40111 10.1633C6.44555 9.43333 8.01999 9.57333 8.95777 10.3478L7.88222 8.78444C7.01666 7.55 7.32666 6.21444 8.56222 5.34778C9.79777 4.48444 13.2989 6.80555 13.2989 6.80555C12.4256 5.55889 12.5889 3.97889 13.8356 3.10444C14.4349 2.68565 15.176 2.52191 15.896 2.64921C16.6161 2.7765 17.2561 3.18442 17.6756 3.78333L29.2533 20.1389L27.7778 34.4444L15.4633 29.9533L4.72222 14.0278C4.51277 13.7296 4.36417 13.393 4.28493 13.0373C4.20569 12.6816 4.19736 12.3137 4.26041 11.9548C4.32346 11.5959 4.45667 11.2529 4.6524 10.9455C4.84813 10.6381 5.10255 10.3723 5.40111 10.1633Z" fill="#EF9645"/>
<path d="M2.99445 19.2622C2.99445 19.2622 1.73667 17.4289 3.57111 16.1722C5.40333 14.9156 6.66 16.7478 6.66 16.7478L12.4944 25.2567C12.6956 24.9211 12.9156 24.59 13.1611 24.2633L5.06333 12.4556C5.06333 12.4556 3.80667 10.6233 5.64 9.36667C7.47222 8.11 8.72889 9.94222 8.72889 9.94222L16.3456 21.05C16.6289 20.8189 16.9189 20.5867 17.2178 20.3589L8.38778 7.48C8.38778 7.48 7.13111 5.64778 8.96445 4.39111C10.7967 3.13444 12.0533 4.96667 12.0533 4.96667L20.8833 17.8433C21.2078 17.6444 21.5289 17.4722 21.8511 17.29L13.5978 5.25444C13.5978 5.25444 12.3411 3.42222 14.1733 2.16555C16.0056 0.908888 17.2622 2.74111 17.2622 2.74111L25.9889 15.4678L27.3156 17.4033C21.8178 21.1744 21.2944 28.2689 24.4356 32.85C25.0633 33.7667 25.98 33.1389 25.98 33.1389C22.21 27.64 23.3611 21.4611 28.86 17.6911L27.2389 9.57778C27.2389 9.57778 26.6333 7.44 28.77 6.83333C30.9078 6.22778 31.5144 8.36555 31.5144 8.36555L33.3867 13.9256C34.1289 16.13 34.9189 18.3267 35.9644 20.4044C38.9167 26.2711 37.1533 33.5622 31.5867 37.3811C25.5144 41.5444 17.2133 39.9967 13.0489 33.9256L2.99445 19.2622Z" fill="#FFDC5D"/>
<path d="M13.3333 35.6022C8.8889 35.6022 4.39779 31.1111 4.39779 26.6667C4.39779 26.0522 3.94779 25.5556 3.33335 25.5556C2.7189 25.5556 2.17557 26.0522 2.17557 26.6667C2.17557 33.3333 6.66668 37.8244 13.3333 37.8244C13.9478 37.8244 14.4445 37.2811 14.4445 36.6667C14.4445 36.0522 13.9478 35.6022 13.3333 35.6022Z" fill="#5DADEC"/>
<path d="M7.77778 37.7778C4.44444 37.7778 2.22222 35.5556 2.22222 32.2222C2.22222 31.9275 2.10516 31.6449 1.89679 31.4365C1.68841 31.2282 1.4058 31.1111 1.11111 31.1111C0.816426 31.1111 0.533811 31.2282 0.325437 31.4365C0.117063 31.6449 0 31.9275 0 32.2222C0 36.6667 3.33333 40 7.77778 40C8.07246 40 8.35508 39.8829 8.56345 39.6746C8.77183 39.4662 8.88889 39.1836 8.88889 38.8889C8.88889 38.5942 8.77183 38.3116 8.56345 38.1032C8.35508 37.8948 8.07246 37.7778 7.77778 37.7778ZM26.6667 2.22222C26.372 2.22222 26.0894 2.33928 25.881 2.54766C25.6726 2.75603 25.5556 3.03865 25.5556 3.33333C25.5556 3.62802 25.6726 3.91063 25.881 4.11901C26.0894 4.32738 26.372 4.44444 26.6667 4.44444C31.1111 4.44444 35.5556 8.43222 35.5556 13.3333C35.5556 13.628 35.6726 13.9106 35.881 14.119C36.0894 14.3274 36.372 14.4444 36.6667 14.4444C36.9614 14.4444 37.244 14.3274 37.4523 14.119C37.6607 13.9106 37.7778 13.628 37.7778 13.3333C37.7778 7.20667 33.3333 2.22222 26.6667 2.22222Z" fill="#5DADEC"/>
<path d="M32.2222 0.0466652C31.6089 0.0466652 31.1111 0.497776 31.1111 1.11111C31.1111 1.72444 31.6089 2.26889 32.2222 2.26889C35.5556 2.26889 37.7311 4.74111 37.7311 7.77778C37.7311 8.39111 38.2744 8.88889 38.8889 8.88889C39.5033 8.88889 39.9533 8.39111 39.9533 7.77778C39.9533 3.51444 36.6667 0.0466652 32.2222 0.0466652Z" fill="#5DADEC"/>
</g>
<defs>
<clipPath id="clip0_150_2987">
<rect width="40" height="40" fill="white"/>
</clipPath>
</defs>
</svg>
