<svg width="23" height="23" viewBox="0 0 23 23" fill="none" xmlns="http://www.w3.org/2000/svg">
<g clip-path="url(#clip0_85_653)">
<path d="M3.10566 5.84392C3.70622 5.42417 4.61152 5.50467 5.15075 5.94997L4.5323 5.05106C4.03461 4.34125 4.21286 3.57331 4.9233 3.07497C5.63375 2.57856 7.64688 3.91319 7.64688 3.91319C7.14472 3.19636 7.23863 2.28786 7.95547 1.78506C8.30011 1.54425 8.72624 1.4501 9.14025 1.52329C9.55426 1.59649 9.92229 1.83104 10.1635 2.17542L16.8207 11.5799L15.9722 19.8056L8.89144 17.2232L2.7153 8.06597C2.59487 7.8945 2.50942 7.70096 2.46386 7.49643C2.4183 7.2919 2.41351 7.08039 2.44976 6.87401C2.48602 6.66762 2.56261 6.47041 2.67516 6.29366C2.7877 6.11691 2.93399 5.96408 3.10566 5.84392Z" fill="#EF9645"/>
<path d="M1.72178 11.0758C1.72178 11.0758 0.998555 10.0216 2.05336 9.29903C3.10689 8.57645 3.82947 9.62997 3.82947 9.62997L7.18428 14.5226C7.29992 14.3296 7.42642 14.1393 7.56761 13.9514L2.91139 7.16194C2.91139 7.16194 2.18881 6.10842 3.24297 5.38583C4.2965 4.66325 5.01908 5.71678 5.01908 5.71678L9.39867 12.1038C9.56158 11.9709 9.72833 11.8373 9.9002 11.7064L4.82294 4.301C4.82294 4.301 4.10036 3.24747 5.15453 2.52489C6.20806 1.80231 6.93064 2.85583 6.93064 2.85583L12.0079 10.2599C12.1944 10.1456 12.3791 10.0465 12.5644 9.94175L7.8187 3.02131C7.8187 3.02131 7.09611 1.96778 8.14964 1.24519C9.20317 0.522612 9.92575 1.57614 9.92575 1.57614L14.9436 8.89397L15.7064 10.0069C12.5452 12.1753 12.2443 16.2546 14.0504 18.8888C14.4114 19.4158 14.9385 19.0549 14.9385 19.0549C12.7707 15.893 13.4326 12.3401 16.5945 10.1724L15.6623 5.50722C15.6623 5.50722 15.3141 4.278 16.5427 3.92917C17.7719 3.58097 18.1208 4.81019 18.1208 4.81019L19.1973 8.00719C19.6241 9.27475 20.0783 10.5378 20.6795 11.7326C22.3771 15.1059 21.3631 19.2983 18.1623 21.4941C14.6708 23.8881 9.89764 22.9981 7.50308 19.5072L1.72178 11.0758Z" fill="#FFDC5D"/>
<path d="M7.66664 20.4713C5.11108 20.4713 2.52869 17.8889 2.52869 15.3333C2.52869 14.98 2.26994 14.6944 1.91664 14.6944C1.56333 14.6944 1.25092 14.98 1.25092 15.3333C1.25092 19.1667 3.8333 21.7491 7.66664 21.7491C8.01994 21.7491 8.30553 21.4366 8.30553 21.0833C8.30553 20.73 8.01994 20.4713 7.66664 20.4713Z" fill="#5DADEC"/>
<path d="M4.47222 21.7222C2.55556 21.7222 1.27778 20.4444 1.27778 18.5278C1.27778 18.3583 1.21047 18.1958 1.09065 18.076C0.970837 17.9562 0.808333 17.8889 0.638889 17.8889C0.469445 17.8889 0.306941 17.9562 0.187126 18.076C0.0673113 18.1958 0 18.3583 0 18.5278C0 21.0833 1.91667 23 4.47222 23C4.64167 23 4.80417 22.9327 4.92399 22.8129C5.0438 22.6931 5.11111 22.5306 5.11111 22.3611C5.11111 22.1917 5.0438 22.0292 4.92399 21.9093C4.80417 21.7895 4.64167 21.7222 4.47222 21.7222ZM15.3333 1.27778C15.1639 1.27778 15.0014 1.34509 14.8816 1.4649C14.7618 1.58472 14.6944 1.74722 14.6944 1.91667C14.6944 2.08611 14.7618 2.24862 14.8816 2.36843C15.0014 2.48825 15.1639 2.55556 15.3333 2.55556C17.8889 2.55556 20.4444 4.84853 20.4444 7.66667C20.4444 7.83611 20.5118 7.99862 20.6316 8.11843C20.7514 8.23825 20.9139 8.30556 21.0833 8.30556C21.2528 8.30556 21.4153 8.23825 21.5351 8.11843C21.6549 7.99862 21.7222 7.83611 21.7222 7.66667C21.7222 4.14383 19.1667 1.27778 15.3333 1.27778Z" fill="#5DADEC"/>
<path d="M18.5278 0.0268326C18.1751 0.0268326 17.8889 0.286221 17.8889 0.638888C17.8889 0.991555 18.1751 1.30461 18.5278 1.30461C20.4445 1.30461 21.6954 2.72614 21.6954 4.47222C21.6954 4.82489 22.0078 5.11111 22.3611 5.11111C22.7144 5.11111 22.9732 4.82489 22.9732 4.47222C22.9732 2.0208 21.0834 0.0268326 18.5278 0.0268326Z" fill="#5DADEC"/>
</g>
<defs>
<clipPath id="clip0_85_653">
<rect width="23" height="23" fill="white"/>
</clipPath>
</defs>
</svg>
