<svg width="32" height="32" viewBox="0 0 32 32" fill="none" xmlns="http://www.w3.org/2000/svg">
<g clip-path="url(#clip0_85_645)">
<path d="M11.7676 6.6138C12.4976 6.55056 13.2414 7.07293 13.4857 7.72819L13.3996 6.64048C13.3234 5.77692 13.8618 5.20099 14.7262 5.12464C15.5897 5.04996 16.6658 7.21236 16.6658 7.21236C16.5893 6.34048 17.1249 5.60065 17.9971 5.52363C18.416 5.4874 18.8321 5.61893 19.154 5.88933C19.476 6.15972 19.6774 6.54686 19.7141 6.96569L20.7772 18.4388L15.9296 25.1382L11.0886 19.3614L10.3185 8.34298C10.3 8.13426 10.3227 7.92393 10.3855 7.72402C10.4483 7.52411 10.55 7.33854 10.6845 7.17793C10.8191 7.01733 10.9841 6.88484 11.1699 6.78804C11.3558 6.69124 11.5589 6.63203 11.7676 6.6138Z" fill="#EF9645"/>
<path d="M7.95323 10.4528C7.95323 10.4528 7.85398 9.17826 9.12876 9.07989C10.4024 8.98088 10.5014 10.2546 10.5014 10.2546L10.9605 16.1691C11.1571 16.0598 11.3619 15.9582 11.578 15.8661L10.9404 7.65813C10.9404 7.65813 10.8414 6.38446 12.1156 6.28577C13.3893 6.18676 13.4883 7.46043 13.4883 7.46043L14.0876 15.1815C14.2952 15.1479 14.5063 15.1156 14.7207 15.0881L14.0263 6.13626C14.0263 6.13626 13.9273 4.86259 15.2015 4.7639C16.4752 4.66489 16.5742 5.93856 16.5742 5.93856L17.2692 14.8893C17.4879 14.8835 17.6974 14.8901 17.9102 14.892L17.2606 6.52589C17.2606 6.52589 17.1615 5.25222 18.4352 5.1532C19.7089 5.05419 19.8079 6.32787 19.8079 6.32787L20.4946 15.1742L20.5987 16.5195C16.7768 16.8167 14.4766 20.1991 14.7237 23.3834C14.7727 24.0203 15.4097 23.9712 15.4097 23.9712C15.1133 20.1491 17.4629 17.4032 21.2851 17.1068L22.8104 12.6006C22.8104 12.6006 23.1234 11.3619 24.3618 11.6741C25.6005 11.9872 25.288 13.2262 25.288 13.2262L24.6218 16.5331C24.3576 17.8442 24.1194 19.1652 24.0427 20.5005C23.8262 24.2706 20.8519 27.3944 16.982 27.6956C12.7613 28.0231 9.07258 24.8658 8.74428 20.6453L7.95323 10.4528Z" fill="#FFDC5D"/>
<path d="M8.40388 21.562C6.1907 20.2842 5.24548 16.7566 6.52326 14.5434C6.69991 14.2374 6.61862 13.8607 6.31265 13.6841C6.00668 13.5074 5.59332 13.5986 5.41667 13.9045C3.5 17.2243 4.44522 20.7519 7.76499 22.6686C8.07096 22.8452 8.47449 22.7175 8.65114 22.4115C8.8278 22.1055 8.70985 21.7386 8.40388 21.562Z" fill="#5DADEC"/>
<path d="M5.01195 21.0481C3.35207 20.0898 2.88437 18.3443 3.8427 16.6844C3.92742 16.5377 3.95038 16.3633 3.90653 16.1996C3.86267 16.0359 3.7556 15.8964 3.60885 15.8117C3.46211 15.727 3.28772 15.704 3.12405 15.7479C2.96038 15.7917 2.82084 15.8988 2.73611 16.0455C1.45834 18.2587 2.15988 20.8769 4.37306 22.1547C4.5198 22.2394 4.69419 22.2624 4.85786 22.2185C5.02153 22.1747 5.16108 22.0676 5.2458 21.9208C5.33052 21.7741 5.35348 21.5997 5.30963 21.436C5.26577 21.2724 5.15869 21.1328 5.01195 21.0481ZM24.6402 8.77326C24.4934 8.68854 24.319 8.66558 24.1554 8.70943C23.9917 8.75329 23.8522 8.86036 23.7674 9.00711C23.6827 9.15385 23.6598 9.32824 23.7036 9.49191C23.7475 9.65558 23.8545 9.79512 24.0013 9.87985C26.2145 11.1576 27.2811 14.4212 25.8721 16.8618C25.7874 17.0085 25.7644 17.1829 25.8083 17.3466C25.8521 17.5102 25.9592 17.6498 26.1059 17.7345C26.2527 17.8192 26.4271 17.8422 26.5907 17.7983C26.7544 17.7545 26.8939 17.6474 26.9787 17.5006C28.7401 14.4498 27.9599 10.6899 24.6402 8.77326Z" fill="#5DADEC"/>
<path d="M28.0321 9.28713C27.7267 9.1108 27.3491 9.19232 27.1728 9.49774C26.9965 9.80316 27.0878 10.2174 27.3932 10.3937C29.0531 11.3521 29.4257 13.2086 28.5527 14.7208C28.3763 15.0262 28.5038 15.4303 28.8097 15.6069C29.1157 15.7836 29.4829 15.6651 29.6592 15.3596C30.8849 13.2367 30.2453 10.5649 28.0321 9.28713Z" fill="#5DADEC"/>
</g>
<defs>
<clipPath id="clip0_85_645">
<rect width="23" height="23" fill="white" transform="translate(12) rotate(30)"/>
</clipPath>
</defs>
</svg>
